<svg width="800" height="1000" viewBox="0 0 800 1000" fill="none" xmlns="http://www.w3.org/2000/svg">
<rect width="800" height="1000" fill="#F5F5F5"/>
<rect width="800" height="1000" fill="white"/>
<path d="M490.176 287H273.706C262.01 287 252.53 296.828 252.53 308.951V655.293C252.53 667.416 262.01 677.244 273.706 677.244H490.176C501.872 677.244 511.353 667.416 511.353 655.293V308.951C511.353 296.828 501.872 287 490.176 287Z" fill="url(#paint0_linear_1_33)" stroke="#0050FF" stroke-width="2.5"/>
<path d="M490.176 287H273.706C262.01 287 252.53 296.828 252.53 308.951V338.22C252.53 350.343 262.01 360.171 273.706 360.171H490.176C501.872 360.171 511.353 350.343 511.353 338.22V308.951C511.353 296.828 501.872 287 490.176 287Z" fill="#0A1A60" stroke="#0050FF" stroke-width="2.5"/>
<path d="M511.353 335.78H252.53V360.171H511.353V335.78Z" fill="#0A1A60"/>
<path d="M472.529 323.585H291.353C286.155 323.585 281.941 327.953 281.941 333.341V423.585C281.941 428.973 286.155 433.341 291.353 433.341H472.529C477.727 433.341 481.941 428.973 481.941 423.585V333.341C481.941 327.953 477.727 323.585 472.529 323.585Z" fill="url(#paint1_linear_1_33)" stroke="#0050FF" stroke-width="1.8"/>
<path opacity="0.8" d="M299.588 352.854H464.294" stroke="#08D264" stroke-width="1.2"/>
<path opacity="0.6" d="M299.588 372.366H417.235" stroke="#08D264" stroke-width="1.2"/>
<path opacity="0.8" d="M299.588 391.878H440.764" stroke="#0050FF" stroke-width="1.2"/>
<path opacity="0.5" d="M299.588 411.39H393.706" stroke="#08D264"/>
<path opacity="0.7" d="M264.294 447.976H499.588" stroke="#0050FF" stroke-width="1.5"/>
<path d="M326.647 460.171H281.941C278.692 460.171 276.058 462.901 276.058 466.268V488.219C276.058 491.587 278.692 494.317 281.941 494.317H326.647C329.895 494.317 332.529 491.587 332.529 488.219V466.268C332.529 462.901 329.895 460.171 326.647 460.171Z" fill="#0050FF" stroke="#08D264" stroke-width="1.5"/>
<path d="M392.529 460.171H347.823C344.574 460.171 341.941 462.901 341.941 466.268V488.219C341.941 491.587 344.574 494.317 347.823 494.317H392.529C395.778 494.317 398.411 491.587 398.411 488.219V466.268C398.411 462.901 395.778 460.171 392.529 460.171Z" fill="#0A1A60" stroke="#0050FF" stroke-width="1.5"/>
<path d="M458.411 460.171H413.706C410.457 460.171 407.823 462.901 407.823 466.268V488.219C407.823 491.587 410.457 494.317 413.706 494.317H458.411C461.66 494.317 464.294 491.587 464.294 488.219V466.268C464.294 462.901 461.66 460.171 458.411 460.171Z" fill="#0A1A60" stroke="#0050FF" stroke-width="1.5"/>
<path opacity="0.7" d="M264.294 511.39H499.588" stroke="#0050FF" stroke-width="1.5"/>
<path d="M480.764 523.585H283.117C279.219 523.585 276.058 526.861 276.058 530.902V577.244C276.058 581.285 279.219 584.561 283.117 584.561H480.764C484.663 584.561 487.823 581.285 487.823 577.244V530.902C487.823 526.861 484.663 523.585 480.764 523.585Z" fill="#0A1A60" stroke="#08D264" stroke-width="2"/>
<path opacity="0.6" d="M381.941 523.585V584.561" stroke="#0050FF"/>
<path d="M309.665 558.584V555.926L315.131 545.426H317.01V549.105H315.898L312.452 555.755V555.879H320.219V558.584H309.665ZM315.949 561.39V557.773L316 556.596V545.426H318.595V561.39H315.949ZM322.063 561.39V558.959L326.722 553.696C327.119 553.229 327.451 552.807 327.72 552.434C327.992 552.06 328.199 551.693 328.34 551.334C328.48 550.971 328.551 550.578 328.551 550.157C328.551 549.69 328.463 549.287 328.289 548.949C328.114 548.606 327.875 548.344 327.573 548.162C327.27 547.974 326.927 547.882 326.544 547.882C326.143 547.882 325.794 547.981 325.495 548.177C325.197 548.374 324.967 548.659 324.805 549.027C324.643 549.396 324.562 549.835 324.562 550.344H321.935C321.935 549.3 322.129 548.393 322.517 547.624C322.904 546.855 323.448 546.26 324.146 545.839C324.845 545.418 325.651 545.207 326.563 545.207C327.5 545.207 328.316 545.41 329.011 545.816C329.71 546.216 330.253 546.772 330.641 547.484C331.029 548.195 331.222 549.011 331.222 549.932C331.222 550.534 331.124 551.129 330.928 551.716C330.737 552.304 330.394 552.956 329.899 553.673C329.405 554.385 328.708 555.24 327.809 556.238L325.898 558.522V558.63H331.395V561.39H322.063ZM335.018 561.593C334.596 561.593 334.234 561.411 333.931 561.048C333.633 560.678 333.484 560.237 333.484 559.722C333.484 559.212 333.633 558.777 333.931 558.412C334.234 558.049 334.596 557.867 335.018 557.867C335.427 557.867 335.785 558.049 336.092 558.412C336.398 558.777 336.552 559.212 336.552 559.722C336.552 560.065 336.479 560.379 336.335 560.666C336.194 560.946 336.009 561.172 335.778 561.344C335.548 561.51 335.295 561.593 335.018 561.593ZM343.438 561.609C342.534 561.609 341.729 561.406 341.021 561C340.318 560.595 339.76 560.037 339.347 559.324C338.933 558.612 338.718 557.796 338.701 556.877H341.386C341.416 557.495 341.629 557.996 342.025 558.382C342.421 558.766 342.892 558.959 343.438 558.959C343.872 558.959 344.256 558.841 344.588 558.607C344.925 558.368 345.187 558.038 345.374 557.617C345.566 557.191 345.662 556.702 345.662 556.152C345.662 555.59 345.564 555.096 345.368 554.671C345.176 554.245 344.91 553.912 344.569 553.673C344.228 553.434 343.838 553.312 343.399 553.306C343.016 553.306 342.643 553.402 342.281 553.595C341.923 553.788 341.644 554.05 341.443 554.383L338.982 553.844L339.602 545.426H347.605V548.185H341.884L341.546 552.184H341.622C341.852 551.789 342.2 551.462 342.664 551.202C343.129 550.943 343.649 550.812 344.224 550.812C345.012 550.812 345.715 551.038 346.333 551.49C346.951 551.943 347.439 552.563 347.797 553.354C348.155 554.138 348.332 555.043 348.328 556.066C348.332 557.141 348.127 558.098 347.714 558.935C347.305 559.766 346.732 560.421 345.994 560.899C345.262 561.372 344.409 561.609 343.438 561.609Z" fill="#08D264"/>
<path d="M424.216 561.39V545.426H429.381C430.369 545.426 431.213 545.641 431.912 546.073C432.615 546.499 433.15 547.105 433.517 547.889C433.887 548.668 434.073 549.585 434.073 550.64C434.073 551.701 433.885 552.613 433.51 553.377C433.135 554.135 432.592 554.717 431.88 555.123C431.173 555.528 430.316 555.73 429.311 555.73H425.852V553.018H428.863C429.392 553.018 429.83 552.929 430.18 552.754C430.529 552.577 430.789 552.311 430.96 551.959C431.134 551.605 431.222 551.166 431.222 550.64C431.222 550.111 431.134 549.663 430.96 549.3C430.789 548.937 430.527 548.661 430.173 548.473C429.824 548.282 429.383 548.185 428.85 548.185H426.984V561.39H424.216ZM431.286 554.126L434.539 561.39H431.484L428.301 554.126H431.286ZM440.35 563.385V543.43H441.398V563.385H440.35ZM443.13 550.017C443.079 549.388 442.86 548.9 442.472 548.551C442.084 548.204 441.558 548.029 440.893 548.029C440.441 548.029 440.06 548.107 439.749 548.263C439.438 548.413 439.199 548.624 439.033 548.895C438.871 549.165 438.79 549.472 438.79 549.815C438.781 550.1 438.83 550.35 438.937 550.562C439.048 550.776 439.199 550.96 439.391 551.116C439.583 551.267 439.804 551.4 440.056 551.513C440.307 551.623 440.575 551.716 440.861 551.794L442.037 552.138C442.608 552.293 443.132 552.501 443.61 552.761C444.087 553.021 444.5 553.34 444.85 553.719C445.199 554.099 445.47 554.546 445.661 555.061C445.857 555.576 445.958 556.165 445.962 556.83C445.958 557.807 445.753 558.654 445.348 559.371C444.948 560.083 444.368 560.637 443.61 561.032C442.855 561.422 441.945 561.616 440.88 561.616C439.823 561.616 438.903 561.418 438.119 561.024C437.339 560.629 436.73 560.044 436.291 559.269C435.856 558.49 435.628 557.527 435.607 556.378H438.285C438.315 556.913 438.441 557.36 438.662 557.718C438.888 558.072 439.188 558.34 439.563 558.522C439.943 558.699 440.371 558.787 440.848 558.787C441.317 558.787 441.724 558.704 442.069 558.538C442.418 558.371 442.689 558.14 442.881 557.844C443.073 557.548 443.168 557.207 443.168 556.822C443.168 556.463 443.081 556.162 442.906 555.918C442.736 555.673 442.485 555.466 442.152 555.294C441.824 555.123 441.421 554.967 440.944 554.827L439.519 554.39C438.415 554.062 437.543 553.551 436.904 552.855C436.265 552.159 435.948 551.221 435.952 550.04C435.948 549.074 436.159 548.229 436.585 547.507C437.015 546.784 437.605 546.221 438.355 545.816C439.105 545.41 439.958 545.207 440.912 545.207C441.884 545.207 442.732 545.41 443.456 545.816C444.185 546.221 444.752 546.784 445.156 547.507C445.561 548.229 445.77 549.066 445.783 550.017H443.13Z" fill="#0050FF"/>
<path opacity="0.7" d="M264.294 601.634H499.588" stroke="#0050FF" stroke-width="1.5"/>
<path d="M364.294 611.39H281.941C278.692 611.39 276.058 614.121 276.058 617.488V654.073C276.058 657.44 278.692 660.171 281.941 660.171H364.294C367.542 660.171 370.176 657.44 370.176 654.073V617.488C370.176 614.121 367.542 611.39 364.294 611.39Z" fill="#0050FF" stroke="#08D264" stroke-width="1.5"/>
<path d="M481.941 611.39H399.588C396.339 611.39 393.706 614.121 393.706 617.488V654.073C393.706 657.44 396.339 660.171 399.588 660.171H481.941C485.19 660.171 487.823 657.44 487.823 654.073V617.488C487.823 614.121 485.19 611.39 481.941 611.39Z" fill="#0A1A60" stroke="#0050FF" stroke-width="1.5"/>
<path d="M527.823 677.244H236.059C232.16 677.244 229 680.52 229 684.561V699.195C229 703.237 232.16 706.512 236.059 706.512H527.823C531.722 706.512 534.882 703.237 534.882 699.195V684.561C534.882 680.52 531.722 677.244 527.823 677.244Z" fill="#0A1A60" stroke="#0050FF" stroke-width="2.5"/>
<path d="M507.823 701.634H256.058C254.11 701.634 252.53 703.272 252.53 705.293V710.171C252.53 712.191 254.11 713.829 256.058 713.829H507.823C509.772 713.829 511.353 712.191 511.353 710.171V705.293C511.353 703.272 509.772 701.634 507.823 701.634Z" fill="#0A1A60" stroke="#0050FF" stroke-width="2"/>
<path d="M511.353 401.634C550.568 401.634 570.176 421.96 570.176 462.61C570.176 503.26 558.411 531.716 534.882 547.976C511.353 562.61 499.588 582.935 499.588 608.951" stroke="#08D264" stroke-width="6" stroke-linecap="round"/>
<path d="M507.823 606.512H491.353C486.804 606.512 483.117 610.334 483.117 615.049V661.39C483.117 666.105 486.804 669.927 491.353 669.927H507.823C512.371 669.927 516.058 666.105 516.058 661.39V615.049C516.058 610.334 512.371 606.512 507.823 606.512Z" fill="#0A1A60" stroke="#08D264" stroke-width="2"/>
<path d="M506.647 621.146H492.529C491.23 621.146 490.176 622.238 490.176 623.585V628.463C490.176 629.811 491.23 630.902 492.529 630.902H506.647C507.946 630.902 509 629.811 509 628.463V623.585C509 622.238 507.946 621.146 506.647 621.146Z" fill="#0050FF" stroke="#08D264" stroke-width="1.5"/>
<path d="M497.235 655.293H511.353V672.366H490.176" stroke="#08D264" stroke-width="1.8" stroke-linecap="round" stroke-linejoin="round"/>
<path d="M511.353 389.439H530.176" stroke="#08D264" stroke-width="3" stroke-linecap="round"/>
<path d="M530.176 396.756C534.075 396.756 537.235 393.48 537.235 389.439C537.235 385.398 534.075 382.122 530.176 382.122C526.278 382.122 523.117 385.398 523.117 389.439C523.117 393.48 526.278 396.756 530.176 396.756Z" fill="#0A1A60" stroke="#08D264" stroke-width="2"/>
<path opacity="0.8" d="M447.823 296.756H316.058C313.459 296.756 311.353 298.94 311.353 301.634V318.707C311.353 321.401 313.459 323.585 316.058 323.585H447.823C450.422 323.585 452.529 321.401 452.529 318.707V301.634C452.529 298.94 450.422 296.756 447.823 296.756Z" fill="#0050FF" stroke="#08D264" stroke-width="1.2"/>
<path d="M350.368 307.066H352.075L353.877 312.43H353.954L355.757 307.066H357.463V315.049H356.121V309.853H356.067L354.373 315.01H353.459L351.765 309.834H351.71V315.049H350.368V307.066ZM359.732 315.049H358.249L360.508 307.066H362.292L364.548 315.049H363.065L361.426 308.891H361.374L359.732 315.049ZM359.639 311.911H363.142V313.229H359.639V311.911ZM368.737 309.362C368.712 309.048 368.602 308.804 368.408 308.63C368.214 308.455 367.951 308.368 367.619 308.368C367.393 308.368 367.202 308.407 367.047 308.485C366.891 308.561 366.772 308.666 366.689 308.801C366.608 308.936 366.567 309.089 366.567 309.261C366.563 309.404 366.587 309.529 366.641 309.635C366.696 309.742 366.772 309.834 366.868 309.912C366.963 309.987 367.074 310.053 367.2 310.111C367.326 310.165 367.46 310.212 367.603 310.251L368.191 310.422C368.476 310.5 368.738 310.604 368.977 310.734C369.216 310.864 369.422 311.024 369.597 311.214C369.772 311.403 369.907 311.627 370.003 311.884C370.101 312.141 370.151 312.436 370.153 312.769C370.151 313.257 370.049 313.681 369.846 314.039C369.646 314.395 369.356 314.672 368.977 314.87C368.6 315.064 368.145 315.162 367.612 315.162C367.084 315.162 366.624 315.063 366.232 314.866C365.842 314.668 365.537 314.376 365.318 313.989C365.1 313.599 364.986 313.117 364.976 312.543H366.315C366.33 312.81 366.392 313.034 366.503 313.213C366.616 313.39 366.766 313.524 366.954 313.615C367.144 313.703 367.358 313.747 367.596 313.747C367.831 313.747 368.034 313.705 368.207 313.622C368.381 313.539 368.517 313.424 368.613 313.275C368.708 313.127 368.756 312.957 368.756 312.765C368.756 312.586 368.713 312.435 368.625 312.313C368.54 312.191 368.414 312.087 368.248 312.001C368.084 311.915 367.883 311.837 367.644 311.767L366.932 311.549C366.38 311.385 365.944 311.129 365.624 310.781C365.305 310.433 365.146 309.964 365.148 309.374C365.146 308.891 365.251 308.468 365.465 308.107C365.68 307.746 365.975 307.464 366.35 307.261C366.725 307.059 367.151 306.957 367.628 306.957C368.114 306.957 368.538 307.059 368.9 307.261C369.265 307.464 369.548 307.746 369.75 308.107C369.953 308.468 370.057 308.887 370.064 309.362H368.737ZM370.835 308.458V307.066H376.21V308.458H374.206V315.049H372.839V308.458H370.835ZM377.096 315.049V307.066H381.506V308.458H378.48V310.36H381.279V311.751H378.48V313.657H381.519V315.049H377.096ZM382.606 315.049V307.066H385.189C385.683 307.066 386.105 307.174 386.454 307.39C386.806 307.603 387.073 307.906 387.257 308.298C387.442 308.688 387.535 309.147 387.535 309.674C387.535 310.204 387.441 310.66 387.253 311.042C387.066 311.421 386.794 311.712 386.438 311.915C386.085 312.118 385.656 312.219 385.154 312.219H383.425V310.863H384.93C385.194 310.863 385.414 310.819 385.588 310.73C385.763 310.642 385.893 310.509 385.978 310.333C386.066 310.156 386.109 309.936 386.109 309.674C386.109 309.409 386.066 309.186 385.978 309.004C385.893 308.822 385.762 308.684 385.585 308.591C385.41 308.494 385.19 308.446 384.924 308.446H383.99V315.049H382.606ZM386.141 311.416L387.768 315.049H386.24L384.649 311.416H386.141ZM392.916 315.049H390.596V307.066H392.935C393.594 307.066 394.16 307.226 394.635 307.546C395.111 307.863 395.476 308.319 395.732 308.914C395.989 309.509 396.118 310.221 396.118 311.05C396.118 311.881 395.989 312.596 395.732 313.194C395.476 313.791 395.108 314.25 394.629 314.569C394.152 314.889 393.581 315.049 392.916 315.049ZM391.98 313.603H392.858C393.268 313.603 393.612 313.514 393.891 313.338C394.172 313.158 394.383 312.882 394.524 312.508C394.666 312.131 394.738 311.645 394.738 311.05C394.738 310.46 394.666 309.978 394.524 309.604C394.383 309.23 394.173 308.954 393.894 308.778C393.615 308.601 393.271 308.513 392.862 308.513H391.98V313.603ZM397.903 315.049H396.42L398.679 307.066H400.463L402.719 315.049H401.236L399.596 308.891H399.545L397.903 315.049ZM397.81 311.911H401.313V313.229H397.81V311.911ZM402.458 308.458V307.066H407.833V308.458H405.829V315.049H404.462V308.458H402.458ZM409.047 315.049H407.564L409.824 307.066H411.607L413.864 315.049H412.381L410.741 308.891H410.69L409.047 315.049ZM408.954 311.911H412.457V313.229H408.954V311.911Z" fill="white"/>
<defs>
<linearGradient id="paint0_linear_1_33" x1="252.53" y1="677.244" x2="252.53" y2="287" gradientUnits="userSpaceOnUse">
<stop stop-color="#08D264"/>
<stop offset="0.5" stop-color="#0050FF"/>
<stop offset="1" stop-color="#0A1A60"/>
</linearGradient>
<linearGradient id="paint1_linear_1_33" x1="281.941" y1="323.585" x2="281.941" y2="433.341" gradientUnits="userSpaceOnUse">
<stop stop-color="#0A1A60"/>
<stop offset="1" stop-color="#0050FF" stop-opacity="0.6"/>
</linearGradient>
</defs>
</svg>
