<svg width="800" height="1000" viewBox="0 0 800 1000" fill="none" xmlns="http://www.w3.org/2000/svg">
<rect width="800" height="1000" fill="#F5F5F5"/>
<rect width="800" height="1000" fill="white"/>
<path d="M490.176 314H273.706C262.011 314 252.529 323.828 252.529 335.951V682.292C252.529 694.415 262.011 704.243 273.706 704.243H490.176C501.872 704.243 511.353 694.415 511.353 682.292V335.951C511.353 323.828 501.872 314 490.176 314Z" fill="white" stroke="#0A1A60" stroke-width="2.5"/>
<path d="M490.176 314H273.706C262.011 314 252.529 323.828 252.529 335.951V365.219C252.529 377.343 262.011 387.17 273.706 387.17H490.176C501.872 387.17 511.353 377.343 511.353 365.219V335.951C511.353 323.828 501.872 314 490.176 314Z" fill="white" stroke="#0A1A60" stroke-width="2.5"/>
<path d="M511.353 362.78H252.529V387.17H511.353V362.78Z" fill="white"/>
<path d="M472.529 350.585H291.353C286.155 350.585 281.941 354.953 281.941 360.341V450.585C281.941 455.973 286.155 460.341 291.353 460.341H472.529C477.727 460.341 481.941 455.973 481.941 450.585V360.341C481.941 354.953 477.727 350.585 472.529 350.585Z" stroke="#0A1A60" stroke-width="1.8"/>
<path opacity="0.4" d="M299.588 379.853H464.294" stroke="#0A1A60" stroke-dasharray="4 3"/>
<path opacity="0.4" d="M299.588 399.365H417.235" stroke="#0A1A60" stroke-dasharray="4 3"/>
<path opacity="0.4" d="M299.588 418.878H440.765" stroke="#0A1A60" stroke-dasharray="4 3"/>
<path opacity="0.4" d="M299.588 438.39H393.706" stroke="#0A1A60" stroke-dasharray="4 3"/>
<path opacity="0.5" d="M264.294 474.975H499.588" stroke="#0A1A60" stroke-width="1.5"/>
<path d="M326.647 487.17H281.941C278.693 487.17 276.059 489.9 276.059 493.268V515.219C276.059 518.587 278.693 521.317 281.941 521.317H326.647C329.896 521.317 332.529 518.587 332.529 515.219V493.268C332.529 489.9 329.896 487.17 326.647 487.17Z" stroke="#0A1A60" stroke-width="1.5"/>
<path d="M392.529 487.17H347.823C344.575 487.17 341.941 489.9 341.941 493.268V515.219C341.941 518.587 344.575 521.317 347.823 521.317H392.529C395.778 521.317 398.412 518.587 398.412 515.219V493.268C398.412 489.9 395.778 487.17 392.529 487.17Z" stroke="#0A1A60" stroke-width="1.5"/>
<path d="M458.412 487.17H413.706C410.457 487.17 407.823 489.9 407.823 493.268V515.219C407.823 518.587 410.457 521.317 413.706 521.317H458.412C461.66 521.317 464.294 518.587 464.294 515.219V493.268C464.294 489.9 461.66 487.17 458.412 487.17Z" stroke="#0A1A60" stroke-width="1.5"/>
<path opacity="0.5" d="M264.294 538.39H499.588" stroke="#0A1A60" stroke-width="1.5"/>
<path d="M480.765 550.585H283.117C279.219 550.585 276.059 553.861 276.059 557.902V604.243C276.059 608.286 279.219 611.561 283.117 611.561H480.765C484.663 611.561 487.823 608.286 487.823 604.243V557.902C487.823 553.861 484.663 550.585 480.765 550.585Z" stroke="#0A1A60" stroke-width="1.5"/>
<path opacity="0.5" d="M381.941 550.585V611.561" stroke="#0A1A60"/>
<path opacity="0.5" d="M264.294 628.634H499.588" stroke="#0A1A60" stroke-width="1.5"/>
<path d="M364.294 638.39H281.941C278.693 638.39 276.059 641.12 276.059 644.487V681.073C276.059 684.441 278.693 687.17 281.941 687.17H364.294C367.543 687.17 370.176 684.441 370.176 681.073V644.487C370.176 641.12 367.543 638.39 364.294 638.39Z" stroke="#0A1A60" stroke-width="1.5"/>
<path d="M481.941 638.39H399.588C396.339 638.39 393.706 641.12 393.706 644.487V681.073C393.706 684.441 396.339 687.17 399.588 687.17H481.941C485.19 687.17 487.823 684.441 487.823 681.073V644.487C487.823 641.12 485.19 638.39 481.941 638.39Z" stroke="#0A1A60" stroke-width="1.5"/>
<path d="M527.823 704.243H236.059C232.16 704.243 229 707.519 229 711.561V726.195C229 730.236 232.16 733.512 236.059 733.512H527.823C531.722 733.512 534.882 730.236 534.882 726.195V711.561C534.882 707.519 531.722 704.243 527.823 704.243Z" fill="white" stroke="#0A1A60" stroke-width="2.5"/>
<path d="M507.823 728.634H256.059C254.11 728.634 252.529 730.272 252.529 732.292V737.17C252.529 739.191 254.11 740.829 256.059 740.829H507.823C509.773 740.829 511.353 739.191 511.353 737.17V732.292C511.353 730.272 509.773 728.634 507.823 728.634Z" fill="white" stroke="#0A1A60" stroke-width="2"/>
<path d="M511.353 428.634C550.568 428.634 570.176 448.959 570.176 489.609C570.176 530.26 558.412 558.715 534.882 574.975C511.353 589.609 499.588 609.935 499.588 635.951" stroke="#0A1A60" stroke-width="6" stroke-linecap="round"/>
<path d="M507.823 633.512H491.353C486.805 633.512 483.118 637.335 483.118 642.048V688.39C483.118 693.105 486.805 696.926 491.353 696.926H507.823C512.372 696.926 516.059 693.105 516.059 688.39V642.048C516.059 637.335 512.372 633.512 507.823 633.512Z" fill="white" stroke="#0A1A60" stroke-width="2"/>
<path d="M506.647 648.146H492.529C491.23 648.146 490.176 649.239 490.176 650.585V655.463C490.176 656.81 491.23 657.902 492.529 657.902H506.647C507.946 657.902 509 656.81 509 655.463V650.585C509 649.239 507.946 648.146 506.647 648.146Z" stroke="#0A1A60" stroke-width="1.5"/>
<path d="M497.235 682.292H511.353V699.365H490.176" stroke="#0A1A60" stroke-width="1.8" stroke-linecap="round" stroke-linejoin="round"/>
<path d="M511.353 416.439H530.176" stroke="#0A1A60" stroke-width="3" stroke-linecap="round"/>
<path d="M530.176 423.756C534.075 423.756 537.235 420.48 537.235 416.439C537.235 412.398 534.075 409.122 530.176 409.122C526.278 409.122 523.118 412.398 523.118 416.439C523.118 420.48 526.278 423.756 530.176 423.756Z" fill="white" stroke="#0A1A60" stroke-width="2"/>
<path opacity="0.4" d="M447.823 323.756H316.059C313.46 323.756 311.353 325.94 311.353 328.634V345.707C311.353 348.401 313.46 350.585 316.059 350.585H447.823C450.422 350.585 452.529 348.401 452.529 345.707V328.634C452.529 325.94 450.422 323.756 447.823 323.756Z" stroke="#0A1A60" stroke-width="1.2"/>
<path d="M351.814 333.872H352.76L354.984 340.067H355.061L357.285 333.872H358.231V341.335H357.49V335.665H357.426L355.38 341.335H354.665L352.619 335.665H352.555V341.335H351.814V333.872ZM360.089 341.335H359.258L361.661 333.872H362.48L364.883 341.335H364.052L362.096 335.053H362.045L360.089 341.335ZM360.396 338.42H363.745V339.222H360.396V338.42ZM369.482 335.738C369.444 335.369 369.288 335.082 369.015 334.878C368.743 334.674 368.408 334.572 368.012 334.572C367.722 334.572 367.469 334.625 367.251 334.732C367.036 334.839 366.868 334.986 366.746 335.173C366.627 335.36 366.567 335.573 366.567 335.811C366.567 336.01 366.609 336.181 366.692 336.325C366.777 336.465 366.886 336.583 367.018 336.678C367.15 336.77 367.289 336.847 367.433 336.908C367.578 336.966 367.712 337.013 367.833 337.05L368.498 337.254C368.668 337.305 368.858 337.375 369.067 337.465C369.278 337.555 369.479 337.678 369.671 337.833C369.865 337.986 370.024 338.183 370.15 338.424C370.276 338.664 370.339 338.959 370.339 339.309C370.339 339.712 370.246 340.077 370.061 340.402C369.877 340.728 369.609 340.987 369.255 341.179C368.904 341.371 368.476 341.467 367.974 341.467C367.505 341.467 367.099 341.38 366.756 341.208C366.415 341.035 366.147 340.795 365.95 340.486C365.757 340.178 365.647 339.819 365.621 339.411H366.439C366.461 339.693 366.544 339.926 366.689 340.111C366.836 340.293 367.021 340.429 367.245 340.519C367.471 340.607 367.714 340.65 367.974 340.65C368.276 340.65 368.548 340.594 368.789 340.483C369.029 340.368 369.22 340.21 369.361 340.009C369.501 339.805 369.572 339.567 369.572 339.295C369.572 339.047 369.511 338.845 369.389 338.69C369.268 338.534 369.108 338.408 368.91 338.311C368.712 338.213 368.498 338.128 368.268 338.056L367.462 337.793C366.951 337.626 366.546 337.386 366.248 337.075C365.949 336.764 365.8 336.357 365.8 335.854C365.8 335.436 365.899 335.072 366.098 334.761C366.298 334.448 366.566 334.205 366.903 334.032C367.242 333.857 367.62 333.77 368.037 333.77C368.459 333.77 368.834 333.856 369.162 334.029C369.491 334.199 369.751 334.432 369.942 334.728C370.136 335.025 370.238 335.361 370.249 335.738H369.482ZM371.284 334.674V333.872H376.193V334.674H374.135V341.335H373.342V334.674H371.284ZM377.416 341.335V333.872H381.367V334.674H378.209V337.195H381.162V337.997H378.209V340.534H381.418V341.335H377.416ZM382.795 341.335V333.872H385.007C385.518 333.872 385.938 333.971 386.266 334.171C386.594 334.368 386.837 334.638 386.995 334.983C387.152 335.328 387.231 335.721 387.231 336.161C387.231 336.6 387.152 336.99 386.995 337.33C386.837 337.67 386.595 337.938 386.269 338.132C385.943 338.324 385.527 338.42 385.02 338.42H383.23V337.604H384.994C385.343 337.604 385.625 337.545 385.838 337.429C386.053 337.312 386.208 337.147 386.304 336.933C386.402 336.717 386.451 336.459 386.451 336.161C386.451 335.862 386.402 335.6 386.304 335.377C386.206 335.153 386.05 334.981 385.835 334.86C385.619 334.736 385.335 334.674 384.981 334.674H383.588V341.335H382.795ZM385.876 337.983L387.487 341.335H386.566L384.981 337.983H385.876ZM393.103 341.335H391.083V333.872H393.193C393.828 333.872 394.371 334.021 394.823 334.32C395.274 334.617 395.621 335.043 395.861 335.599C396.102 336.153 396.222 336.816 396.222 337.589C396.222 338.366 396.101 339.036 395.858 339.597C395.615 340.156 395.261 340.586 394.797 340.887C394.333 341.186 393.768 341.335 393.103 341.335ZM391.876 340.534H393.052C393.593 340.534 394.042 340.415 394.397 340.177C394.753 339.938 395.019 339.599 395.193 339.16C395.368 338.72 395.455 338.196 395.455 337.589C395.455 336.987 395.369 336.468 395.196 336.033C395.024 335.596 394.766 335.26 394.423 335.027C394.08 334.791 393.653 334.674 393.141 334.674H391.876V340.534ZM397.513 341.335H396.682L399.085 333.872H399.903L402.307 341.335H401.476L399.52 335.053H399.469L397.513 341.335ZM397.82 338.42H401.169V339.222H397.82V338.42ZM402.204 334.674V333.872H407.113V334.674H405.055V341.335H404.262V334.674H402.204ZM407.84 341.335H407.009L409.412 333.872H410.231L412.634 341.335H411.803L409.847 335.053H409.796L407.84 341.335ZM408.147 338.42H411.496V339.222H408.147V338.42Z" fill="#0A1A60"/>
</svg>
