<svg width="1569" height="150" viewBox="0 0 1569 150" fill="none" xmlns="http://www.w3.org/2000/svg">
<g id="M&#195;&#137;TODO STICKER&#226;&#132;&#162;">
<path d="M16.9034 45.6251H43.4517L60.206 114.034H61.3992L100.724 45.6251H127.273L110.369 147.443H89.4887L100.526 81.1719H99.6307L62.4432 146.946H48.1747L32.8622 80.9233H32.0171L20.8807 147.443H1.66222e-05L16.9034 45.6251ZM122.505 147.443L139.409 45.6251H208.017L205.034 63.3736H157.953L153.976 87.635H197.527L194.544 105.384H150.993L147.015 129.695H194.295L191.312 147.443H122.505ZM167.896 35.7813L182.264 13.1606H201.852L182.91 35.7813H167.896ZM212.671 63.3736L215.654 45.6251H299.276L296.293 63.3736H265.121L251.201 147.443H229.922L243.843 63.3736H212.671ZM387.714 97.9262C385.857 108.797 382.261 118.028 376.925 125.618C371.622 133.208 365.142 138.975 357.486 142.919C349.863 146.863 341.643 148.835 332.827 148.835C323.58 148.835 315.609 146.731 308.914 142.521C302.252 138.312 297.429 132.23 294.446 124.276C291.464 116.288 290.9 106.66 292.756 95.3907C294.546 84.4863 298.109 75.2392 303.445 67.6492C308.781 60.0261 315.294 54.2259 322.983 50.2486C330.673 46.2382 338.942 44.233 347.792 44.233C356.973 44.233 364.894 46.3542 371.556 50.5966C378.251 54.8391 383.073 60.9707 386.023 68.9915C389.006 76.9792 389.57 86.6241 387.714 97.9262ZM366.286 95.3907C367.446 88.3973 367.396 82.5308 366.137 77.7912C364.91 73.0185 362.657 69.4058 359.375 66.9532C356.094 64.5005 351.951 63.2742 346.946 63.2742C341.511 63.2742 336.523 64.6331 331.982 67.3509C327.474 70.0687 323.663 74.0128 320.547 79.1833C317.465 84.3206 315.327 90.5682 314.134 97.9262C312.941 104.953 312.974 110.819 314.233 115.526C315.526 120.232 317.83 123.795 321.144 126.215C324.491 128.601 328.651 129.794 333.623 129.794C339.025 129.794 343.964 128.468 348.438 125.817C352.946 123.132 356.741 119.238 359.823 114.134C362.905 108.996 365.06 102.749 366.286 95.3907ZM426.398 147.443H389.807L406.71 45.6251H442.605C452.847 45.6251 461.348 47.7131 468.11 51.8893C474.904 56.0654 479.693 62.0479 482.478 69.8367C485.262 77.5924 485.759 86.8561 483.969 97.6279C482.246 108.035 478.815 116.967 473.678 124.425C468.54 131.849 461.961 137.55 453.941 141.527C445.92 145.471 436.739 147.443 426.398 147.443ZM414.416 128.999H427.641C434.038 128.999 439.639 127.805 444.445 125.419C449.284 123.033 453.245 119.354 456.327 114.382C459.442 109.411 461.647 103.047 462.939 95.2912C464.165 87.9333 464.083 81.9674 462.691 77.3935C461.332 72.7865 458.697 69.4224 454.786 67.3012C450.875 65.1468 445.737 64.0697 439.374 64.0697H425.205L414.416 128.999ZM587.881 97.9262C586.025 108.797 582.429 118.028 577.092 125.618C571.789 133.208 565.31 138.975 557.653 142.919C550.03 146.863 541.811 148.835 532.994 148.835C523.747 148.835 515.776 146.731 509.081 142.521C502.419 138.312 497.597 132.23 494.614 124.276C491.631 116.288 491.067 106.66 492.923 95.3907C494.713 84.4863 498.276 75.2392 503.612 67.6492C508.948 60.0261 515.461 54.2259 523.151 50.2486C530.84 46.2382 539.109 44.233 547.959 44.233C557.14 44.233 565.061 46.3542 571.723 50.5966C578.418 54.8391 583.241 60.9707 586.19 68.9915C589.173 76.9792 589.737 86.6241 587.881 97.9262ZM566.453 95.3907C567.613 88.3973 567.563 82.5308 566.304 77.7912C565.078 73.0185 562.824 69.4058 559.543 66.9532C556.261 64.5005 552.118 63.2742 547.114 63.2742C541.678 63.2742 536.69 64.6331 532.149 67.3509C527.642 70.0687 523.83 74.0128 520.715 79.1833C517.632 84.3206 515.494 90.5682 514.301 97.9262C513.108 104.953 513.141 110.819 514.401 115.526C515.693 120.232 517.997 123.795 521.311 126.215C524.659 128.601 528.818 129.794 533.79 129.794C539.192 129.794 544.131 128.468 548.605 125.817C553.113 123.132 556.908 119.238 559.99 114.134C563.072 108.996 565.227 102.749 566.453 95.3907ZM725.28 44.2472C725.517 38.3287 723.789 33.7595 720.096 30.5398C716.45 27.3201 710.934 25.7103 703.547 25.7103C698.528 25.7103 694.172 26.4205 690.479 27.841C686.786 29.2141 683.827 31.1317 681.601 33.5938C679.423 36.0086 678.074 38.8021 677.553 41.9745C677.032 44.5787 677.198 46.8514 678.05 48.7927C678.95 50.734 680.347 52.4148 682.241 53.8353C684.182 55.2084 686.478 56.4158 689.13 57.4574C691.781 58.4518 694.599 59.304 697.582 60.0143L710.082 63.1393C716.189 64.5597 721.682 66.4536 726.559 68.8211C731.483 71.1885 735.602 74.1004 738.917 77.5569C742.278 81.0133 744.646 85.0853 746.019 89.7728C747.392 94.4603 747.582 99.8343 746.587 105.895C745.072 114.796 741.545 122.514 736.005 129.048C730.465 135.535 723.197 140.578 714.201 144.176C705.205 147.727 694.788 149.503 682.951 149.503C671.208 149.503 661.289 147.704 653.192 144.105C645.096 140.507 639.201 135.18 635.508 128.125C631.862 121.023 630.773 112.24 632.241 101.776H661.999C661.478 106.653 662.189 110.724 664.13 113.992C666.118 117.211 669.078 119.65 673.008 121.307C676.938 122.917 681.554 123.722 686.857 123.722C692.113 123.722 696.777 122.964 700.849 121.449C704.968 119.934 708.306 117.827 710.863 115.128C713.42 112.429 714.982 109.328 715.55 105.824C716.118 102.557 715.621 99.8107 714.059 97.5853C712.496 95.3599 709.987 93.466 706.53 91.9035C703.121 90.2936 698.884 88.8732 693.817 87.6421L678.618 83.6648C666.876 80.6819 657.998 76.018 651.985 69.6733C645.972 63.3286 643.817 54.7822 645.522 44.0341C647.037 35.2273 650.707 27.5332 656.53 20.9518C662.402 14.323 669.788 9.18566 678.689 5.53982C687.638 1.84664 697.416 5.00679e-05 708.022 5.00679e-05C718.817 5.00679e-05 727.932 1.87032 735.366 5.61085C742.799 9.30403 748.221 14.465 751.63 21.0938C755.039 27.7226 756.081 35.4404 754.755 44.2472H725.28ZM766.73 27.3438L770.991 1.98869H890.452L886.19 27.3438H841.659L821.773 147.443H791.375L811.261 27.3438H766.73ZM932.878 1.98869L908.73 147.443H877.977L902.125 1.98869H932.878ZM1069.92 52.912H1039.24C1039.34 48.84 1038.82 45.2415 1037.68 42.1165C1036.54 38.9442 1034.84 36.2453 1032.57 34.0199C1030.34 31.7946 1027.62 30.1137 1024.4 28.9773C1021.18 27.7936 1017.56 27.2018 1013.53 27.2018C1005.77 27.2018 998.641 29.143 992.154 33.0256C985.667 36.9082 980.198 42.5427 975.748 49.929C971.297 57.268 968.219 66.1459 966.515 76.5626C964.858 86.6004 964.952 95.0048 966.799 101.776C968.645 108.546 971.912 113.66 976.6 117.117C981.335 120.526 987.23 122.23 994.285 122.23C998.641 122.23 1002.78 121.686 1006.71 120.597C1010.64 119.46 1014.22 117.85 1017.44 115.767C1020.71 113.636 1023.55 111.056 1025.96 108.026C1028.42 104.995 1030.34 101.563 1031.71 97.7273H1062.61C1060.67 104.403 1057.64 110.843 1053.52 117.046C1049.45 123.248 1044.4 128.788 1038.39 133.665C1032.38 138.494 1025.53 142.33 1017.86 145.171C1010.19 148.011 1001.79 149.432 992.651 149.432C979.441 149.432 968.101 146.402 958.631 140.341C949.209 134.28 942.414 125.545 938.248 114.134C934.081 102.723 933.3 88.9679 935.904 72.8694C938.508 57.2917 943.598 44.0815 951.174 33.2387C958.797 22.3485 968.054 14.0862 978.944 8.45175C989.881 2.81728 1001.58 5.00679e-05 1014.03 5.00679e-05C1022.69 5.00679e-05 1030.53 1.18376 1037.54 3.55119C1044.55 5.91861 1050.51 9.37505 1055.44 13.9205C1060.41 18.4186 1064.15 23.9347 1066.66 30.4688C1069.17 37.0029 1070.26 44.484 1069.92 52.912ZM1068.42 147.443L1092.57 1.98869H1123.32L1112.74 66.1222H1114.66L1177.58 1.98869H1214.45L1149.89 67.1165L1190.94 147.443H1154.15L1124.46 87.6421L1106.14 106.25L1099.18 147.443H1068.42ZM1198.31 147.443L1222.46 1.98869H1320.47L1316.21 27.3438H1248.95L1243.27 62.0029H1305.49L1301.22 87.358H1239.01L1233.33 122.088H1300.87L1296.61 147.443H1198.31ZM1312.77 147.443L1336.92 1.98869H1394.31C1405.29 1.98869 1414.34 3.92998 1421.44 7.81255C1428.59 11.6951 1433.61 17.2112 1436.5 24.3608C1439.43 31.4631 1440.12 39.8438 1438.56 49.5029C1436.95 59.162 1433.47 67.448 1428.11 74.3608C1422.81 81.2737 1415.9 86.6004 1407.38 90.341C1398.9 94.0341 1389.08 95.8807 1377.9 95.8807H1339.48L1343.74 71.1648H1377.12C1382.99 71.1648 1388.01 70.3599 1392.18 68.7501C1396.34 67.1402 1399.63 64.7254 1402.05 61.5057C1404.51 58.286 1406.12 54.2851 1406.88 49.5029C1407.68 44.626 1407.4 40.554 1406.03 37.287C1404.65 33.9726 1402.17 31.4631 1398.57 29.7586C1394.97 28.0067 1390.24 27.1307 1384.36 27.1307H1363.63L1343.53 147.443H1312.77ZM1402.26 81.2501L1427.48 147.443H1393.53L1369.1 81.2501H1402.26ZM1527.04 54.2614L1514.82 1.98869H1526.4L1533.72 36.5057L1552.32 1.98869H1563.9L1534.43 54.2614H1527.04ZM1502.11 54.2614L1510.78 1.98869H1523.91L1515.25 54.2614H1502.11ZM1546.14 54.2614L1554.81 1.98869H1568.02L1559.35 54.2614H1546.14ZM1463.9 54.2614L1471.78 6.53414H1484.92L1477.11 54.2614H1463.9ZM1454.88 12.8552L1456.66 1.98869H1501.68L1499.84 12.8552H1454.88Z" fill="url(#paint0_linear_4_5)"/>
</g>
<defs>
<linearGradient id="paint0_linear_4_5" x1="13.0093" y1="22.4432" x2="1575.28" y2="106.636" gradientUnits="userSpaceOnUse">
<stop stop-color="#F5F0E8"/>
<stop offset="1" stop-color="#D4A574"/>
</linearGradient>
</defs>
</svg>
